<svg width="24" height="25" viewBox="0 0 24 25" fill="none" xmlns="http://www.w3.org/2000/svg">
<path d="M12 7.37501C12.373 7.37501 12.7306 7.22686 12.9944 6.96313C13.2581 6.69941 13.4063 6.34172 13.4063 5.96876C13.4063 5.5958 13.2581 5.23812 12.9944 4.97439C12.7306 4.71067 12.373 4.56251 12 4.56251C11.627 4.56251 11.2694 4.71067 11.0056 4.97439C10.7419 5.23812 10.5938 5.5958 10.5938 5.96876C10.5938 6.34172 10.7419 6.69941 11.0056 6.96313C11.2694 7.22686 11.627 7.37501 12 7.37501ZM13.38 0.728139C12.9899 0.411141 12.5026 0.238098 12 0.238098C11.4974 0.238098 11.0101 0.411141 10.62 0.728139L1.24124 8.35001C0.101238 9.28001 0.757489 11.125 2.22749 11.125H2.62499V19C1.51124 19.5681 0.749989 20.725 0.749989 22.0619V23.3125C0.749989 23.5612 0.848761 23.7996 1.02458 23.9754C1.20039 24.1512 1.43885 24.25 1.68749 24.25H22.3125C22.5612 24.25 22.7996 24.1512 22.9754 23.9754C23.1512 23.7996 23.25 23.5612 23.25 23.3125V22.0619C23.25 20.7269 22.4888 19.5681 21.375 19V11.125H21.7725C23.2425 11.125 23.8988 9.27814 22.7569 8.35001L13.3819 0.726264L13.38 0.728139ZM11.805 2.18314C11.8607 2.13808 11.9302 2.1135 12.0019 2.1135C12.0735 2.1135 12.143 2.13808 12.1988 2.18314L20.8894 9.25001H3.10874L11.805 2.18126V2.18314ZM19.5 18.625H17.625V11.125H19.5V18.625ZM15.75 18.625H12.9375V11.125H15.75V18.625ZM11.0625 18.625H8.25V11.125H11.0625V18.625ZM19.8131 20.5C20.6756 20.5 21.375 21.1994 21.375 22.0619V22.375H2.62499V22.0619C2.62499 21.1994 3.32437 20.5 4.18687 20.5H19.8131ZM6.375 18.625H4.49999V11.125H6.375V18.625Z" fill="white"/>
</svg>
