<svg width="17" height="5" viewBox="0 0 17 5" fill="none" xmlns="http://www.w3.org/2000/svg">
<path d="M8.33333 4.16667C8.88587 4.16667 9.41577 3.94717 9.80647 3.55647C10.1972 3.16577 10.4167 2.63587 10.4167 2.08333C10.4167 1.5308 10.1972 1.0009 9.80647 0.610195C9.41577 0.219494 8.88587 0 8.33333 0C7.7808 0 7.2509 0.219494 6.86019 0.610195C6.46949 1.0009 6.25 1.5308 6.25 2.08333C6.25 2.63587 6.46949 3.16577 6.86019 3.55647C7.2509 3.94717 7.7808 4.16667 8.33333 4.16667ZM2.08333 4.16667C2.63587 4.16667 3.16577 3.94717 3.55647 3.55647C3.94717 3.16577 4.16667 2.63587 4.16667 2.08333C4.16667 1.5308 3.94717 1.0009 3.55647 0.610195C3.16577 0.219494 2.63587 0 2.08333 0C1.5308 0 1.00089 0.219494 0.610194 0.610195C0.219493 1.0009 0 1.5308 0 2.08333C0 2.63587 0.219493 3.16577 0.610194 3.55647C1.00089 3.94717 1.5308 4.16667 2.08333 4.16667ZM14.5833 4.16667C15.1359 4.16667 15.6658 3.94717 16.0565 3.55647C16.4472 3.16577 16.6667 2.63587 16.6667 2.08333C16.6667 1.5308 16.4472 1.0009 16.0565 0.610195C15.6658 0.219494 15.1359 0 14.5833 0C14.0308 0 13.5009 0.219494 13.1102 0.610195C12.7195 1.0009 12.5 1.5308 12.5 2.08333C12.5 2.63587 12.7195 3.16577 13.1102 3.55647C13.5009 3.94717 14.0308 4.16667 14.5833 4.16667Z" fill="black"/>
</svg>
