<svg width="26" height="19" viewBox="0 0 26 19" fill="none" xmlns="http://www.w3.org/2000/svg">
<path d="M0.5 1.875C0.5 1.37772 0.697544 0.900805 1.04917 0.549174C1.40081 0.197544 1.87772 0 2.375 0H23.625C24.1223 1.04794e-08 24.5992 0.197544 24.9508 0.549174C25.3025 0.900805 25.5 1.37772 25.5 1.875C25.5 2.37228 25.3025 2.84919 24.9508 3.20083C24.5992 3.55246 24.1223 3.75 23.625 3.75H2.375C1.87772 3.75 1.40081 3.55246 1.04917 3.20083C0.697544 2.84919 0.5 2.37228 0.5 1.875ZM5.5 9.375C5.5 8.87772 5.69754 8.4008 6.04917 8.04917C6.4008 7.69754 6.87772 7.5 7.375 7.5H18.625C19.1223 7.5 19.5992 7.69754 19.9508 8.04917C20.3025 8.4008 20.5 8.87772 20.5 9.375C20.5 9.87228 20.3025 10.3492 19.9508 10.7008C19.5992 11.0525 19.1223 11.25 18.625 11.25H7.375C6.87772 11.25 6.4008 11.0525 6.04917 10.7008C5.69754 10.3492 5.5 9.87228 5.5 9.375ZM11.125 15C10.6277 15 10.1508 15.1975 9.79917 15.5492C9.44754 15.9008 9.25 16.3777 9.25 16.875C9.25 17.3723 9.44754 17.8492 9.79917 18.2008C10.1508 18.5525 10.6277 18.75 11.125 18.75H14.875C15.3723 18.75 15.8492 18.5525 16.2008 18.2008C16.5525 17.8492 16.75 17.3723 16.75 16.875C16.75 16.3777 16.5525 15.9008 16.2008 15.5492C15.8492 15.1975 15.3723 15 14.875 15H11.125Z" fill="black"/>
</svg>
