<svg width="50" height="32" viewBox="0 0 50 32" fill="none" xmlns="http://www.w3.org/2000/svg">
<path d="M2 0.109314C0.89565 0.109314 0 1.01559 0 2.13361V29.8664C0 30.9844 0.8961 31.8907 2 31.8907H48C49.1044 31.8907 50 30.9844 50 29.8664V2.13361C50 1.01564 49.1039 0.109314 48 0.109314H2ZM29.8625 9.58077C31.0794 9.58077 32.0546 9.85284 32.6766 10.1058L32.2516 12.8117L31.9703 12.6678C31.391 12.4148 30.6468 12.1714 29.6203 12.1886C28.3915 12.1886 27.8235 12.7434 27.8235 13.2625C27.8163 13.8474 28.4872 14.2331 29.5844 14.8107C31.3952 15.7019 32.2322 16.7825 32.2203 18.203C32.1959 20.7949 30.0541 22.4698 26.7547 22.4698C25.347 22.4542 23.9909 22.1525 23.2578 21.804L23.6985 19.008L24.1031 19.2072C25.134 19.6734 25.8015 19.862 27.0578 19.862C27.96 19.862 28.9282 19.4797 28.9359 18.6427C28.9418 18.0961 28.5312 17.7064 27.3094 17.0944C26.1188 16.497 24.5404 15.4964 24.5579 13.7021C24.5765 11.275 26.761 9.58077 29.8625 9.58077ZM4.42185 9.97774H9.48905C10.1714 10.0038 10.7223 10.2262 10.9125 10.9757L12.0047 16.6816C12.0048 16.6821 12.0045 16.6842 12.0047 16.6848L12.3328 18.3944L15.4094 9.97774H18.7375L13.7906 22.2975L10.4656 22.3006L7.81875 12.3594C9.39365 13.2039 10.7345 14.181 11.511 15.5256C11.3108 15.1001 11.047 14.6198 10.7094 14.1465C10.3163 13.5953 9.46735 12.8836 9.1125 12.5808C7.876 11.5258 6.19675 10.6737 4.3828 10.2229L4.42185 9.97774ZM20.0609 9.99196H23.3156L21.2796 22.2927H18.025L20.0609 9.99196ZM38.4438 9.99196H40.9094L43.4907 22.2927H40.5312C40.5312 22.2927 40.2377 20.8796 40.1422 20.4487C39.6771 20.4487 36.4239 20.444 36.0578 20.444C35.934 20.777 35.386 22.2927 35.386 22.2927H32.0375L36.7734 11.0136C37.1087 10.2121 37.6803 9.99196 38.4438 9.99196ZM38.686 13.3004C38.5258 13.758 38.247 14.4968 38.2656 14.4644C38.2656 14.4644 37.2637 17.1688 37.0016 17.8709L39.6343 17.8693C39.3898 16.6964 39.145 15.5235 38.9 14.3506L38.686 13.3005V13.3004Z" fill="white"/>
</svg>
